<svg width="1506" height="1080" viewBox="0 0 1506 1080" fill="none" xmlns="http://www.w3.org/2000/svg">
<mask id="mask0_777_12" style="mask-type:luminance" maskUnits="userSpaceOnUse" x="0" y="0" width="1506" height="1080">
<path d="M1505.96 0H0V1080H1505.96V0Z" fill="white"/>
</mask>
<g mask="url(#mask0_777_12)">
<path d="M704.542 1479.81C574.591 1479.81 456.387 1446.24 349.921 1379.12C243.458 1312 158.13 1223.02 93.9389 1112.19C31.3131 999.806 0 875.706 0 739.903C0 604.097 31.3131 479.999 93.9389 367.611C158.13 255.22 243.458 166.244 349.921 100.683C456.387 33.5609 574.591 0 704.542 0C795.349 0 878.327 16.3903 953.479 49.1708C1028.63 80.3902 1092.82 124.098 1146.05 180.293V37.4634H1498.32V1442.34H1146.05V1299.51C1092.82 1355.71 1028.63 1400.2 953.479 1432.98C878.327 1464.2 795.349 1479.81 704.542 1479.81ZM753.858 1121.56C822.746 1121.56 885.373 1104.39 941.735 1070.05C998.101 1035.71 1042.72 989.659 1075.6 931.903C1110.04 874.147 1127.27 810.147 1127.27 739.903C1127.27 669.658 1110.04 605.659 1075.6 547.902C1042.72 490.146 998.101 444.099 941.735 409.757C885.373 375.416 822.746 358.244 753.858 358.244C684.97 358.244 622.346 375.416 565.981 409.757C509.618 444.099 464.215 490.146 429.771 547.902C396.891 605.659 380.452 669.658 380.452 739.903C380.452 810.147 396.891 874.147 429.771 931.903C464.215 989.659 509.618 1035.71 565.981 1070.05C622.346 1104.39 684.97 1121.56 753.858 1121.56Z" fill="white"/>
</g>
</svg>
